<svg id="e1M5TsfVBb81" xmlns="http://www.w3.org/2000/svg" xmlns:xlink="http://www.w3.org/1999/xlink" viewBox="0 0 1024 512" shape-rendering="geometricPrecision" text-rendering="geometricPrecision"><g transform="matrix(1.156327 0 0 1.156327-80.03942-40.01973)"><g transform="matrix(1.033682 0 0 1.033682 748.780499-13.000492)"><path d="M85.978556,170.858157c0,0,41.299854-14.825589,64.597197,1.058975s22.97805,72.219195,19.061457,120.722615-69.553992,138.277659-69.553992,138.277659" transform="translate(.000003 0.000002)" fill="none" stroke="#000" stroke-width="3"/><g transform="matrix(.745851-.666112 0.666112 0.745851-182.119007 329.637994)"><path d="M141.799583,264.369994l9.907654-29.162493" fill="none" stroke="#000" stroke-width="3"/><path d="M141.799583,264.369994l44.447358,22.906104" transform="translate(.000001 0.000001)" fill="none" stroke="#000" stroke-width="3"/></g></g><g transform="translate(171.298311-69.110489)"><path d="M44.30161,136.51224c0,60.11534,8.66689,126.47082-1.26576,186.06675" transform="translate(.000001 0)" fill="none" stroke="#3f5787" stroke-width="3"/><path d="M40.50433,142.84104c35.57639-4.44705,59.70501,5.98744,54.42769,45.56737-1.98056,14.85419-6.37831,29.91815-17.72064,40.50433-4.70824,4.39435-10.69448,7.24588-16.45488,10.12608-3.93993,1.96996-17.06258,3.79728-12.6576,3.79728c9.57807,0,19.35476-4.03271,29.11248-2.53152c8.42566,1.29626,17.53353,7.24134,22.78368,13.92336c24.79299,31.55472-29.56874,64.66783-54.42769,70.88257" transform="translate(0 0.000001)" fill="none" stroke="#3f5787" stroke-width="3"/></g><path d="M127.84178,221.31817c1.98538,17.86843-2.38842,73.01602,22.78368,77.21137c25.89105,4.31518,35.72273-18.51831,40.50433-39.23857c1.59562-6.91434,2.53152-14.43593,2.53152-21.51792c0-4.64112,0-18.56448,0-13.92336c0,25.9768,1.11697,45.26978,12.6576,68.35105" transform="translate(171.298311-69.11049)" fill="none" stroke="#3f5787" stroke-width="3"/><g transform="translate(171.298312-69.110488)"><path d="M240.49444,160.56168c0,45.54966,10.12608,89.28927,10.12608,134.17058" fill="none" stroke="#3f5787" stroke-width="3"/><path d="M199.99011,202.33177c21.06488,0,43.84603.34427,64.55377-3.79728" fill="none" stroke="#3f5787" stroke-width="3"/></g><g transform="translate(202.203506-57.096361)"><path d="M348.08405,152.382149c-43.839929-17.535979-25.676835,99.298305-25.676835,120.832191" transform="translate(0 0.000001)" fill="none" stroke="#3f5787" stroke-width="3"/><path d="M285.625729,217.324482c19.916088,2.48951,38.583544,1.483088,57.395291-6.041608" transform="translate(4.36968-16.842943)" fill="none" stroke="#3f5787" stroke-width="3"/></g><g transform="translate(198.406228-52.033313)"><path d="M378.4623,208.66057c3.75993,22.55956,3.79728,44.28704,3.79728,67.08529" transform="translate(.000001 0)" fill="none" stroke="#3f5787" stroke-width="3"/><path d="M375.93078,179.54808c0,2.53152,0,5.06304,0,7.59456" fill="none" stroke="#3f5787" stroke-width="3"/></g><g transform="translate(208.532306-57.096362)"><path d="M415.16935,273.21434c0-25.56168-6.45254-48.71759-11.39184-73.41409" fill="none" stroke="#3f5787" stroke-width="3"/><path d="M405.04326,222.58393c10.57153-7.92865,20.35743-17.2775,31.644-24.04944" fill="none" stroke="#3f5787" stroke-width="3"/></g><path d="M484.78616,199.80025c-5.83582,0-18.45269-3.05278-24.04944,0-7.93596,4.32871-6.40932,7.48506-7.59456,15.18912-5.75926,37.43517,21.44862,23.04815,43.03585,39.23857c2.86409,2.14807,6.77458,4.10962,7.59456,7.59456c8.45254,35.92331-40.53795,39.48499-60.75649,35.44128" transform="translate(220.776403-72.830444)" fill="none" stroke="#3f5787" stroke-width="3"/><g transform="translate(233.744959-69.121089)"><path d="M524.02472,171.95352c10.43824,41.75295,14.19172,84.34523,27.84672,125.31026" fill="none" stroke="#3f5787" stroke-width="3"/><path d="M506.30408,213.72361c23.89729-2.38973,52.4655-3.24014,72.14833-18.9864" fill="none" stroke="#3f5787" stroke-width="3"/></g><g transform="translate(-623.930919 10.027649)"><path d="M680.4648,201.00969c-10.91831-1.81972-19.36887,7.92325-6.90602,15.19325c10.93106,6.37645,11.49241-7.84445,5.52482-13.81204" transform="translate(47.111921 20.660556)" fill="none" stroke="#3f5787" stroke-width="2"/><path d="M717.06671,202.3909c-9.47584,1.89517-19.35809,10.43209-6.21542,18.64626c15.46609,9.6663,10.23032-29.71942,5.52482-17.95565" transform="translate(47.111921 20.660555)" fill="none" stroke="#3f5787" stroke-width="2"/><path d="M749.52501,203.0815c-12.75843,2.55169-7.93542,24.10071,2.07181,22.09927c12.32022-2.46404,9.87103-19.29634-.6906-21.40867" transform="translate(47.111918 20.660555)" fill="none" stroke="#3f5787" stroke-width="2"/></g></g></svg>