<svg id="doodle_intro" xmlns="http://www.w3.org/2000/svg" xmlns:xlink="http://www.w3.org/1999/xlink" viewBox="0 0 512 512" shape-rendering="geometricPrecision" text-rendering="geometricPrecision"><path id="doodle_intro-u-outline" d="M-229.672337,0c0-126.844538,102.827808-229.672353,229.672337-229.672353s229.672337,102.827815,229.672337,229.672353-102.827808,229.672353-229.672337,229.672353-229.672337-102.827815-229.672337-229.672353Z" transform="matrix(0 1-1 0 256 256)" fill="none" stroke="#000" stroke-width="3"/><g id="doodle_intro-u-eyes" transform="translate(0-20.626677)"><ellipse id="doodle_intro-u-eye_r" rx="121.549611" ry="121.549611" transform="matrix(.348837 0 0 0.348837 184.472492 220.306114)" fill="#050505" stroke-width="0"/><ellipse id="doodle_intro-u-eye_l" rx="121.549611" ry="121.549611" transform="matrix(.35 0 0 0.348837 327.527508 220.306114)" fill="#050505" stroke-width="0"/></g><g id="doodle_intro-u-mouth" transform="translate(.000001 0.000001)"><path id="doodle_intro-u-lip_l" d="M207.817133,350.777501c54.343861-.000005,112.438641-7.343999,112.438641-7.343999" transform="translate(48.182866-17.745392)" fill="none" stroke="#3f5787" stroke-width="3"/><path id="doodle_intro-u-lip_r" d="M207.817133,350.777501c54.343861-.000005,112.438641-7.343999,112.438641-7.343999" transform="matrix(-1 0 0 1 463.817132-17.745392)" fill="none" stroke="#3f5787" stroke-width="3"/><path id="doodle_intro-u-cheek_r" d="M104.480296,243.813104c0,0,29.438333,24.69345,17.230924,57.182009s-34.587659,32.488559-34.587659,32.488559" transform="translate(17.730302 37.039722)" fill="none" stroke="#3f5787" stroke-width="3"/><path id="doodle_intro-u-cheek_l" d="M104.480296,243.813104c0,0,29.438333,24.69345,17.230924,57.182009s-34.587659,32.488559-34.587659,32.488559" transform="matrix(-1 0 0 1 492.779827 37.039722)" fill="none" stroke="#3f5787" stroke-width="3"/></g></svg>