<svg id="eqnY7OB3MEo1" xmlns="http://www.w3.org/2000/svg" xmlns:xlink="http://www.w3.org/1999/xlink" viewBox="0 0 512 512" shape-rendering="geometricPrecision" text-rendering="geometricPrecision"><g transform="matrix(.931225 0 0 0.931225 52.518913 32.284737)"><path d="M248.260165,179.18707c62.429749-6.050504,110.419017,15.389972,139.115987,60.485212c14.08949,22.14062,24.192038,47.098424,37.783408,72.582254c12.15982,22.79967,25.20935,18.461614,38.97686,40.096264c19.13963,30.07657,9.322144,109.191439-14.762926,129.262329-17.4553,14.54608-39.993322,17.457293-61.997342,19.657693-25.04464,2.50446-75.597878,2.415093-97.856062-8.603342-43.713169-21.639263-142.572655-8.499531-187.08892,8.603342C75.103136,511.770083,23.21066,465.091,18.24116,430.30451c-8.8987-62.29086,51.90872-79.312434,84.19001-118.049974c27.40912-32.89094,43.75478-74.691542,64.173959-93.752078s19.225287-33.264884,81.655036-39.315388Z" transform="translate(0 0.000001)" fill="none" stroke="#3f5787" stroke-width="3"/><path d="M210.90088,450.467933l-29.174448,42.199548-29.798634-9.975373" transform="matrix(.966528 0.256559-.256559 0.966528-60.220623-39.805454)" fill="none" stroke="#3f5787" stroke-width="3"/><path d="M210.90088,450.467933l-29.174448,42.199548-29.798634-9.975373" transform="matrix(.992217 0.124517-.124517 0.992217-90.607697-3.358037)" fill="none" stroke="#3f5787" stroke-width="3"/><path d="M143.949816,326.730868c-17.90255-6.51002-35.768382-27.454492-33.62155-49.493505c2.025115-20.789482,40.365698-31.160482,57.51884-80.774304" transform="translate(-33.422871-26.26082)" fill="none" stroke="#3f5787" stroke-width="3"/><g transform="matrix(.968382-.249474 0.249474 0.968382-100.781639-30.75107)"><path d="M177.004622,253.4825c1.332825-3.748831,31.667241-10.651884,30.697449-15.708916" fill="none" stroke="#3f5787" stroke-width="3"/><path d="M177.028501,253.389811c11.223387-1.846964,29.174056-2.793224,28.643737-7.737038" fill="none" stroke="#3f5787" stroke-width="3"/><path d="M177.571373,253.529665c7.04817.70482,25.447235,7.328947,26.071624.566404" fill="none" stroke="#3f5787" stroke-width="3"/></g><g transform="translate(-.046847-57.708412)"><path d="M608.278017,435.936011c2.968337-17.810021,22.637938-29.010311,39.85429-24.85464" transform="translate(-340.00238 4.77469)" fill="none" stroke="#3f5787" stroke-width="3"/><path d="M161.67992,402.350588c25.51159.633974,45.083308,20.392339,37.571907,38.447306" transform="translate(-32.96101-19.307957)" fill="none" stroke="#3f5787" stroke-width="3"/><path d="M185.666674,378.627436c12.553787-12.120899,31.206739-32.477052,60.564774-29.354996s51.916958,22.095897,63.172079,41.143023" transform="matrix(.99389 0.110379-.110379 0.99389 17.120029-1.654645)" fill="none" stroke="#3f5787" stroke-width="3"/><path d="M295.534469,280.752015l24.171687.835233" transform="matrix(1.625547 0.183359-.183359 1.625547-170.424512-188.942529)" fill="none" stroke="#3f5787" stroke-width="2"/><path d="M315.212267,274.142504l-19.6778,6.60951l21.656702,10.934259" transform="matrix(1.625546 0.183358-.183358 1.625546-170.64337-188.638664)" fill="none" stroke="#3f5787" stroke-width="2"/><path d="M261.651207,275.022382l-19.975287-3.471814" transform="matrix(1.778622 0 0 1.778622-246.8227-170.816003)" fill="none" stroke="#3f5787" stroke-width="2"/><path d="M243.365777,261.317072l18.28543,13.705309-20.928805,6.308827" transform="matrix(1.778622 0 0 1.778622-246.8227-170.816001)" fill="none" stroke="#3f5787" stroke-width="2"/></g><g transform="matrix(1.324247 0 0 1.324247-170.958054-119.410248)"><path d="M245.853775,138.542525c0,0,0,80.354098,0,80.354098c0,7.605731,4.04445,13.423404,10.146225,13.423404s12.56701-7.410296,12.56701-13.423404" transform="translate(-.59683 0)" fill="none" stroke="#3f5787" stroke-width="2.5"/><path d="M155.134587,150.479257c0,0,2.820924-30.052412,23.87347-52.25865c16.955882-17.885073,50.600191-28.858523,66.845718-28.91115c15.396529-.049878,45.981919,5.96005,62.071024,21.486123c21.965076,21.196418,27.454491,53.715309,27.454491,53.715309s-16.114592-22.679797-47.746941-22.679797-41.778574,16.71143-41.778574,16.71143-15.517756-16.711429-42.972247-16.71143-47.746941,28.648165-47.746941,28.648165Z" transform="translate(0 0.000003)" fill="none" stroke="#3f5787" stroke-width="2.5"/></g></g></svg>