<svg id="wave_theme" viewBox="0 0 900 600" preserveAspectRatio='none' xmlns="http://www.w3.org/2000/svg" xmlns:xlink="http://www.w3.org/1999/xlink" version="1.1"><rect x="0" y="0"></rect><path d="M0 433L30 433L30 107L60 107L60 229L90 229L90 317L120 317L120 281L150 281L150 109L180 109L180 315L210 315L210 509L240 509L240 88L270 88L270 462L300 462L300 495L330 495L330 171L360 171L360 528L390 528L390 123L420 123L420 220L450 220L450 9L480 9L480 459L510 459L510 373L540 373L540 221L570 221L570 496L600 496L600 360L630 360L630 169L660 169L660 263L690 263L690 308L720 308L720 112L750 112L750 234L780 234L780 31L810 31L810 517L840 517L840 359L870 359L870 150L900 150L900 349L900 0L900 0L870 0L870 0L840 0L840 0L810 0L810 0L780 0L780 0L750 0L750 0L720 0L720 0L690 0L690 0L660 0L660 0L630 0L630 0L600 0L600 0L570 0L570 0L540 0L540 0L510 0L510 0L480 0L480 0L450 0L450 0L420 0L420 0L390 0L390 0L360 0L360 0L330 0L330 0L300 0L300 0L270 0L270 0L240 0L240 0L210 0L210 0L180 0L180 0L150 0L150 0L120 0L120 0L90 0L90 0L60 0L60 0L30 0L30 0L0 0Z" stroke-linecap="square" stroke-linejoin="miter"></path></svg>