<svg id="wave_page" viewBox="0 0 300 600" preserveAspectRatio='none' xmlns="http://www.w3.org/2000/svg" xmlns:xlink="http://www.w3.org/1999/xlink" version="1.1"><path d="M179 0L171.7 7.7C164.3 15.3 149.7 30.7 148.2 46C146.7 61.3 158.3 76.7 181.8 92C205.3 107.3 240.7 122.7 236.5 138.2C232.3 153.7 188.7 169.3 185.8 184.8C183 200.3 221 215.7 240.8 231C260.7 246.3 262.3 261.7 245.5 277C228.7 292.3 193.3 307.7 166.3 323C139.3 338.3 120.7 353.7 130.3 369C140 384.3 178 399.7 195.7 415.2C213.3 430.7 210.7 446.3 208 461.8C205.3 477.3 202.7 492.7 205.2 508C207.7 523.3 215.3 538.7 229.8 554C244.3 569.3 265.7 584.7 276.3 592.3L287 600L0 600L0 592.3C0 584.7 0 569.3 0 554C0 538.7 0 523.3 0 508C0 492.7 0 477.3 0 461.8C0 446.3 0 430.7 0 415.2C0 399.7 0 384.3 0 369C0 353.7 0 338.3 0 323C0 307.7 0 292.3 0 277C0 261.7 0 246.3 0 231C0 215.7 0 200.3 0 184.8C0 169.3 0 153.7 0 138.2C0 122.7 0 107.3 0 92C0 76.7 0 61.3 0 46C0 30.7 0 15.3 0 7.7L0 0Z" stroke-linecap="round" stroke-linejoin="miter"></path></svg>